<svg width="200" height="120" viewBox="0 0 200 120" fill="none" xmlns="http://www.w3.org/2000/svg">
<circle cx="50" cy="60" r="50" fill="white"/>
<ellipse cx="55.9997" cy="70.0001" rx="40" ry="40" fill="black"/>
<ellipse cx="58.0003" cy="72.0001" rx="30" ry="30" fill="white"/>
<path d="M117.583 12.3555C119.764 12.6159 121.652 12.8112 123.247 12.9414C124.842 13.0391 126.16 13.1204 127.202 13.1855C128.407 13.2507 129.416 13.2669 130.229 13.2344C131.076 13.2018 132.231 13.1204 133.696 12.9902C134.933 12.8926 136.561 12.7624 138.579 12.5996C140.597 12.4043 143.12 12.1439 146.147 11.8184C146.18 12.5671 146.196 13.2995 146.196 14.0156C146.229 14.6992 146.261 15.3014 146.294 15.8223C146.326 16.4408 146.343 17.0104 146.343 17.5312C146.343 18.0846 146.31 18.7845 146.245 19.6309C146.18 20.347 146.066 21.2585 145.903 22.3652C145.773 23.4395 145.562 24.7253 145.269 26.2227C144.813 24.4648 144.373 23.0488 143.95 21.9746C143.527 20.8678 143.136 19.9889 142.778 19.3379C142.388 18.5892 141.997 18.0195 141.606 17.6289C141.183 17.3359 140.679 17.0918 140.093 16.8965C139.572 16.7337 138.905 16.6035 138.091 16.5059C137.31 16.4082 136.382 16.4245 135.308 16.5547C135.145 20.8516 135.031 24.3346 134.966 27.0039C134.901 29.6732 134.852 31.7565 134.819 33.2539C134.787 35.0443 134.771 36.3301 134.771 37.1113C134.803 38.2181 134.982 39.3086 135.308 40.3828C135.568 41.2943 135.991 42.2383 136.577 43.2148C137.163 44.1914 138.009 45.054 139.116 45.8027H133.159C132.606 45.8027 131.922 45.8353 131.108 45.9004C130.425 45.9655 129.546 46.0306 128.472 46.0957C127.43 46.1608 126.209 46.2747 124.81 46.4375C125.298 45.5911 125.688 44.8262 125.981 44.1426C126.274 43.459 126.502 42.873 126.665 42.3848C126.86 41.7988 127.007 41.278 127.104 40.8223C127.137 40.1712 127.218 38.8529 127.349 36.8672C127.381 36.0534 127.414 35.0443 127.446 33.8398C127.511 32.6354 127.576 31.2031 127.642 29.543C127.739 27.8828 127.821 25.9785 127.886 23.8301C127.983 21.6491 128.081 19.1914 128.179 16.457C127.593 16.2943 127.039 16.3105 126.519 16.5059C125.998 16.6686 125.542 16.8802 125.151 17.1406C124.696 17.4661 124.256 17.8568 123.833 18.3125C123.41 18.8659 122.938 19.582 122.417 20.4609C121.961 21.2096 121.44 22.2025 120.854 23.4395C120.269 24.6439 119.601 26.1413 118.853 27.9316C118.69 26.0436 118.576 24.4974 118.511 23.293C118.446 22.056 118.397 21.0957 118.364 20.4121C118.332 19.5983 118.315 18.9961 118.315 18.6055C118.315 18.2474 118.283 17.7754 118.218 17.1895C118.153 16.7012 118.071 16.0664 117.974 15.2852C117.876 14.4714 117.746 13.4948 117.583 12.3555ZM155.181 26.125C156.027 26.125 156.906 26.2878 157.817 26.6133C158.729 26.9062 159.608 27.2969 160.454 27.7852C161.3 28.2409 162.065 28.7454 162.749 29.2988C163.465 29.8197 164.051 30.3242 164.507 30.8125C165.321 31.6914 165.874 32.8796 166.167 34.377C166.493 35.8418 166.558 37.3555 166.362 38.918C166.167 40.4479 165.711 41.8965 164.995 43.2637C164.279 44.6309 163.286 45.64 162.017 46.291C161.105 46.7467 160.21 47.1048 159.331 47.3652C158.452 47.6257 157.606 47.821 156.792 47.9512C155.978 48.0814 155.213 48.1465 154.497 48.1465C153.781 48.1465 153.162 48.1302 152.642 48.0977C151.665 48.0326 150.64 47.6908 149.565 47.0723C148.524 46.4538 147.531 45.6888 146.587 44.7773C145.675 43.8659 144.894 42.873 144.243 41.7988C143.592 40.6921 143.201 39.6504 143.071 38.6738C142.876 37.3392 142.843 35.9395 142.974 34.4746C143.104 33.0098 143.576 31.6589 144.39 30.4219C145.236 29.1849 146.506 28.1595 148.198 27.3457C149.924 26.5319 152.251 26.125 155.181 26.125ZM153.569 45.0703C153.927 45.1354 154.416 45.054 155.034 44.8262C155.653 44.5658 156.255 44.1589 156.841 43.6055C157.459 43.0521 157.996 42.3522 158.452 41.5059C158.94 40.627 159.233 39.569 159.331 38.332C159.429 37.1276 159.429 36.0208 159.331 35.0117C159.266 34.0026 159.119 33.1237 158.892 32.375C158.664 31.5938 158.403 30.959 158.11 30.4707C157.817 29.9824 157.508 29.6406 157.183 29.4453C156.629 29.1523 155.962 28.9245 155.181 28.7617C154.399 28.5664 153.732 28.599 153.179 28.8594C152.918 28.9896 152.593 29.2663 152.202 29.6895C151.812 30.1126 151.421 30.6497 151.03 31.3008C150.64 31.9193 150.282 32.6354 149.956 33.4492C149.663 34.263 149.451 35.1094 149.321 35.9883C149.191 36.8672 149.159 37.8112 149.224 38.8203C149.321 39.8294 149.533 40.7897 149.858 41.7012C150.184 42.5801 150.64 43.3451 151.226 43.9961C151.844 44.6146 152.625 44.9727 153.569 45.0703ZM166.216 23.0488C166.867 23.1465 167.453 23.2279 167.974 23.293C168.462 23.3255 168.901 23.3581 169.292 23.3906C169.715 23.4232 170.122 23.4395 170.513 23.4395C170.871 23.4395 171.326 23.4232 171.88 23.3906C172.336 23.3581 172.922 23.3255 173.638 23.293C174.386 23.2279 175.265 23.1465 176.274 23.0488C176.209 23.179 176.079 23.5859 175.884 24.2695C175.688 24.9206 175.493 25.7344 175.298 26.7109C175.103 27.6549 174.924 28.7129 174.761 29.8848C174.631 31.0241 174.565 32.1634 174.565 33.3027C174.598 34.4095 174.744 35.4674 175.005 36.4766C175.265 37.4531 175.688 38.2507 176.274 38.8691C177.511 40.1387 178.602 40.9036 179.546 41.1641C180.522 41.4245 181.369 41.3919 182.085 41.0664C182.801 40.7409 183.387 40.2526 183.843 39.6016C184.299 38.9505 184.624 38.3483 184.819 37.7949C185.308 36.2975 185.601 34.7188 185.698 33.0586C185.763 31.6263 185.649 30.0312 185.356 28.2734C185.063 26.5156 184.364 24.7253 183.257 22.9023C184.103 22.9674 184.836 23.0163 185.454 23.0488C186.073 23.0814 186.61 23.1139 187.065 23.1465C187.586 23.179 188.042 23.2116 188.433 23.2441C188.791 23.2767 189.214 23.2767 189.702 23.2441C190.125 23.2441 190.63 23.2279 191.216 23.1953C191.834 23.1302 192.518 23.0651 193.267 23C193.397 26.1901 193.511 29.0384 193.608 31.5449C193.706 34.0189 193.771 36.2161 193.804 38.1367C193.869 40.0247 193.901 41.6686 193.901 43.0684C193.901 44.4355 193.901 45.5911 193.901 46.5352C193.869 48.7812 193.771 50.2624 193.608 50.9785C193.348 51.9876 192.876 52.9967 192.192 54.0059C191.541 55.015 190.711 55.9102 189.702 56.6914C188.693 57.5052 187.521 58.1237 186.187 58.5469C184.884 59.0026 183.452 59.1654 181.89 59.0352C180.36 58.9049 179.139 58.6934 178.228 58.4004C177.349 58.14 176.649 57.8307 176.128 57.4727C175.64 57.1146 175.282 56.7402 175.054 56.3496C174.858 55.959 174.712 55.5521 174.614 55.1289C174.517 54.7383 174.419 54.3639 174.321 54.0059C174.224 53.6478 174.028 53.3385 173.735 53.0781C173.377 52.7852 173.003 52.4922 172.612 52.1992C172.254 51.9388 171.864 51.6784 171.44 51.418C171.05 51.1576 170.659 50.946 170.269 50.7832L180.669 50.1973C180.376 50.5879 180.164 50.946 180.034 51.2715C179.904 51.597 179.823 51.8737 179.79 52.1016C179.757 52.3945 179.774 52.6387 179.839 52.834C179.969 53.2246 180.197 53.6478 180.522 54.1035C180.881 54.5918 181.336 54.9661 181.89 55.2266C182.443 55.5195 183.094 55.6172 183.843 55.5195C184.624 55.4219 185.503 55.015 186.479 54.2988C187.293 53.6803 187.977 52.6875 188.53 51.3203C188.986 50.1484 189.344 48.5046 189.604 46.3887C189.865 44.2728 189.816 41.4896 189.458 38.0391C188.872 40.0573 188.075 41.6035 187.065 42.6777C186.056 43.752 185.047 44.5332 184.038 45.0215C182.866 45.6074 181.646 45.9167 180.376 45.9492C178.683 45.8841 177.235 45.6725 176.03 45.3145C174.826 44.9238 173.833 44.403 173.052 43.752C172.271 43.1009 171.652 42.3359 171.196 41.457C170.773 40.5456 170.464 39.5365 170.269 38.4297C170.073 37.3229 169.976 36.2161 169.976 35.1094C169.976 33.9701 169.976 32.9121 169.976 31.9355C170.008 30.959 170.024 30.0801 170.024 29.2988C170.024 28.485 169.943 27.834 169.78 27.3457C169.585 26.8574 169.325 26.3691 168.999 25.8809C168.739 25.4577 168.381 25.002 167.925 24.5137C167.437 23.9928 166.867 23.5046 166.216 23.0488ZM121.807 73.6738C122.881 73.804 123.857 73.9017 124.736 73.9668C125.583 74.0319 126.315 74.097 126.934 74.1621C127.65 74.2272 128.285 74.276 128.838 74.3086C129.424 74.3086 130.173 74.2923 131.084 74.2598C131.865 74.2272 132.858 74.1784 134.062 74.1133C135.267 74.0482 136.748 73.9342 138.506 73.7715C137.66 74.2598 136.96 74.748 136.406 75.2363C135.885 75.7246 135.479 76.1641 135.186 76.5547C134.827 77.0104 134.567 77.4661 134.404 77.9219C134.307 78.5404 134.339 79.7448 134.502 81.5352C134.567 82.2839 134.665 83.2116 134.795 84.3184C134.958 85.3926 135.153 86.6784 135.381 88.1758C135.641 89.6406 135.951 91.3333 136.309 93.2539C136.699 95.1745 137.139 97.3555 137.627 99.7969C138.278 97.9414 138.815 96.2975 139.238 94.8652C139.661 93.4004 140.02 92.1471 140.312 91.1055C140.638 89.9336 140.915 88.8919 141.143 87.9805C141.37 87.0365 141.647 85.8158 141.973 84.3184C142.233 83.0488 142.575 81.4049 142.998 79.3867C143.421 77.3685 143.942 74.8783 144.561 71.916L146.318 72.1602C146.481 74.4714 146.644 76.5059 146.807 78.2637C147.002 80.0215 147.165 81.5189 147.295 82.7559C147.425 84.1882 147.555 85.4251 147.686 86.4668C147.816 87.4108 148.011 88.5013 148.271 89.7383C148.499 90.7799 148.792 92.0658 149.15 93.5957C149.508 95.0931 149.98 96.7858 150.566 98.6738C151.152 96.3626 151.673 94.2956 152.129 92.4727C152.617 90.6497 153.024 89.0384 153.35 87.6387C153.708 86.2389 154.001 85.0345 154.229 84.0254C154.489 83.0163 154.701 82.1699 154.863 81.4863C155.221 79.8587 155.433 78.7682 155.498 78.2148C155.465 77.5964 155.319 76.9941 155.059 76.4082C154.831 75.8874 154.473 75.3177 153.984 74.6992C153.496 74.0807 152.78 73.4785 151.836 72.8926C153.822 72.9577 155.433 73.0065 156.67 73.0391C157.939 73.0391 158.949 73.0391 159.697 73.0391H161.65H163.408C164.059 73.0391 164.906 73.0391 165.947 73.0391C167.021 73.0065 168.389 72.9577 170.049 72.8926C168.617 73.6413 167.461 74.3249 166.582 74.9434C165.703 75.5618 165.02 76.0827 164.531 76.5059C163.945 77.0267 163.522 77.4661 163.262 77.8242C163.001 78.4753 162.578 79.9401 161.992 82.2188C161.732 83.1953 161.439 84.416 161.113 85.8809C160.788 87.3132 160.397 89.0384 159.941 91.0566C159.518 93.0749 159.03 95.4349 158.477 98.1367C157.923 100.806 157.305 103.866 156.621 107.316L148.174 106.438L144.561 91.252C144.007 94.0189 143.568 96.265 143.242 97.9902C142.917 99.6829 142.673 101.001 142.51 101.945C142.314 103.085 142.201 103.915 142.168 104.436C142.135 104.891 142.103 105.331 142.07 105.754C142.038 106.112 141.989 106.503 141.924 106.926C141.891 107.349 141.842 107.74 141.777 108.098H133.135C132.288 104.387 131.523 101.115 130.84 98.2832C130.189 95.4186 129.603 92.9121 129.082 90.7637C128.561 88.6152 128.105 86.7923 127.715 85.2949C127.357 83.7975 127.031 82.5443 126.738 81.5352C126.087 79.1914 125.615 77.7428 125.322 77.1895C125.094 76.929 124.801 76.6198 124.443 76.2617C124.15 75.9688 123.792 75.6107 123.369 75.1875C122.913 74.7318 122.393 74.2272 121.807 73.6738ZM176.885 86.125C177.731 86.125 178.61 86.2878 179.521 86.6133C180.433 86.9062 181.312 87.2969 182.158 87.7852C183.005 88.2409 183.77 88.7454 184.453 89.2988C185.169 89.8197 185.755 90.3242 186.211 90.8125C187.025 91.6914 187.578 92.8796 187.871 94.377C188.197 95.8418 188.262 97.3555 188.066 98.918C187.871 100.448 187.415 101.896 186.699 103.264C185.983 104.631 184.99 105.64 183.721 106.291C182.809 106.747 181.914 107.105 181.035 107.365C180.156 107.626 179.31 107.821 178.496 107.951C177.682 108.081 176.917 108.146 176.201 108.146C175.485 108.146 174.867 108.13 174.346 108.098C173.369 108.033 172.344 107.691 171.27 107.072C170.228 106.454 169.235 105.689 168.291 104.777C167.38 103.866 166.598 102.873 165.947 101.799C165.296 100.692 164.906 99.6504 164.775 98.6738C164.58 97.3392 164.548 95.9395 164.678 94.4746C164.808 93.0098 165.28 91.6589 166.094 90.4219C166.94 89.1849 168.21 88.1595 169.902 87.3457C171.628 86.5319 173.955 86.125 176.885 86.125ZM175.273 105.07C175.632 105.135 176.12 105.054 176.738 104.826C177.357 104.566 177.959 104.159 178.545 103.605C179.163 103.052 179.701 102.352 180.156 101.506C180.645 100.627 180.938 99.569 181.035 98.332C181.133 97.1276 181.133 96.0208 181.035 95.0117C180.97 94.0026 180.824 93.1237 180.596 92.375C180.368 91.5938 180.107 90.959 179.814 90.4707C179.521 89.9824 179.212 89.6406 178.887 89.4453C178.333 89.1523 177.666 88.9245 176.885 88.7617C176.104 88.5664 175.436 88.599 174.883 88.8594C174.622 88.9896 174.297 89.2663 173.906 89.6895C173.516 90.1126 173.125 90.6497 172.734 91.3008C172.344 91.9193 171.986 92.6354 171.66 93.4492C171.367 94.263 171.156 95.1094 171.025 95.9883C170.895 96.8672 170.863 97.8112 170.928 98.8203C171.025 99.8294 171.237 100.79 171.562 101.701C171.888 102.58 172.344 103.345 172.93 103.996C173.548 104.615 174.329 104.973 175.273 105.07Z" fill="white"/>
</svg>
