<svg width="77" height="98" viewBox="0 0 77 98" fill="none" xmlns="http://www.w3.org/2000/svg">
<path d="M0.583008 1.35547C2.764 1.61589 4.65202 1.8112 6.24707 1.94141C7.84212 2.03906 9.16048 2.12044 10.2021 2.18555C11.4066 2.25065 12.4157 2.26693 13.2295 2.23438C14.0758 2.20182 15.2314 2.12044 16.6963 1.99023C17.9333 1.89258 19.5609 1.76237 21.5791 1.59961C23.5973 1.4043 26.1201 1.14388 29.1475 0.818359C29.18 1.56706 29.1963 2.29948 29.1963 3.01562C29.2288 3.69922 29.2614 4.30143 29.2939 4.82227C29.3265 5.44076 29.3428 6.01042 29.3428 6.53125C29.3428 7.08464 29.3102 7.78451 29.2451 8.63086C29.18 9.34701 29.0661 10.2585 28.9033 11.3652C28.7731 12.4395 28.5615 13.7253 28.2686 15.2227C27.8128 13.4648 27.3734 12.0488 26.9502 10.9746C26.527 9.86784 26.1364 8.98893 25.7783 8.33789C25.3877 7.58919 24.9971 7.01953 24.6064 6.62891C24.1833 6.33594 23.6787 6.0918 23.0928 5.89648C22.5719 5.73372 21.9046 5.60352 21.0908 5.50586C20.3096 5.4082 19.3818 5.42448 18.3076 5.55469C18.1449 9.85156 18.0309 13.3346 17.9658 16.0039C17.9007 18.6732 17.8519 20.7565 17.8193 22.2539C17.7868 24.0443 17.7705 25.3301 17.7705 26.1113C17.8031 27.2181 17.9821 28.3086 18.3076 29.3828C18.568 30.2943 18.9912 31.2383 19.5771 32.2148C20.1631 33.1914 21.0094 34.054 22.1162 34.8027H16.1592C15.6058 34.8027 14.9222 34.8353 14.1084 34.9004C13.4248 34.9655 12.5459 35.0306 11.4717 35.0957C10.43 35.1608 9.20931 35.2747 7.80957 35.4375C8.29785 34.5911 8.68848 33.8262 8.98145 33.1426C9.27441 32.459 9.50228 31.873 9.66504 31.3848C9.86035 30.7988 10.0068 30.278 10.1045 29.8223C10.137 29.1712 10.2184 27.8529 10.3486 25.8672C10.3812 25.0534 10.4137 24.0443 10.4463 22.8398C10.5114 21.6354 10.5765 20.2031 10.6416 18.543C10.7393 16.8828 10.8206 14.9785 10.8857 12.8301C10.9834 10.6491 11.0811 8.19141 11.1787 5.45703C10.5928 5.29427 10.0394 5.31055 9.51855 5.50586C8.99772 5.66862 8.54199 5.88021 8.15137 6.14062C7.69564 6.46615 7.25618 6.85677 6.83301 7.3125C6.40983 7.86589 5.93783 8.58203 5.41699 9.46094C4.96126 10.2096 4.44043 11.2025 3.85449 12.4395C3.26855 13.6439 2.60124 15.1413 1.85254 16.9316C1.68978 15.0436 1.57585 13.4974 1.51074 12.293C1.44564 11.056 1.39681 10.0957 1.36426 9.41211C1.33171 8.59831 1.31543 7.99609 1.31543 7.60547C1.31543 7.2474 1.28288 6.77539 1.21777 6.18945C1.15267 5.70117 1.07129 5.06641 0.973633 4.28516C0.875977 3.47135 0.745768 2.49479 0.583008 1.35547ZM38.1807 15.125C39.027 15.125 39.9059 15.2878 40.8174 15.6133C41.7288 15.9062 42.6077 16.2969 43.4541 16.7852C44.3005 17.2409 45.0654 17.7454 45.749 18.2988C46.4652 18.8197 47.0511 19.3242 47.5068 19.8125C48.3206 20.6914 48.874 21.8796 49.167 23.377C49.4925 24.8418 49.5576 26.3555 49.3623 27.918C49.167 29.4479 48.7113 30.8965 47.9951 32.2637C47.279 33.6309 46.2861 34.64 45.0166 35.291C44.1051 35.7467 43.21 36.1048 42.3311 36.3652C41.4521 36.6257 40.6058 36.821 39.792 36.9512C38.9782 37.0814 38.2132 37.1465 37.4971 37.1465C36.7809 37.1465 36.1624 37.1302 35.6416 37.0977C34.665 37.0326 33.6396 36.6908 32.5654 36.0723C31.5238 35.4538 30.5309 34.6888 29.5869 33.7773C28.6755 32.8659 27.8942 31.873 27.2432 30.7988C26.5921 29.6921 26.2015 28.6504 26.0713 27.6738C25.876 26.3392 25.8434 24.9395 25.9736 23.4746C26.1038 22.0098 26.5758 20.6589 27.3896 19.4219C28.236 18.1849 29.5055 17.1595 31.1982 16.3457C32.9235 15.5319 35.251 15.125 38.1807 15.125ZM36.5693 34.0703C36.9274 34.1354 37.4157 34.054 38.0342 33.8262C38.6527 33.5658 39.2549 33.1589 39.8408 32.6055C40.4593 32.0521 40.9964 31.3522 41.4521 30.5059C41.9404 29.627 42.2334 28.569 42.3311 27.332C42.4287 26.1276 42.4287 25.0208 42.3311 24.0117C42.266 23.0026 42.1195 22.1237 41.8916 21.375C41.6637 20.5938 41.4033 19.959 41.1104 19.4707C40.8174 18.9824 40.5081 18.6406 40.1826 18.4453C39.6292 18.1523 38.9619 17.9245 38.1807 17.7617C37.3994 17.5664 36.7321 17.599 36.1787 17.8594C35.9183 17.9896 35.5928 18.2663 35.2021 18.6895C34.8115 19.1126 34.4209 19.6497 34.0303 20.3008C33.6396 20.9193 33.2816 21.6354 32.9561 22.4492C32.6631 23.263 32.4515 24.1094 32.3213 24.9883C32.1911 25.8672 32.1585 26.8112 32.2236 27.8203C32.3213 28.8294 32.5329 29.7897 32.8584 30.7012C33.1839 31.5801 33.6396 32.3451 34.2256 32.9961C34.8441 33.6146 35.6253 33.9727 36.5693 34.0703ZM49.2158 12.0488C49.8669 12.1465 50.4528 12.2279 50.9736 12.293C51.4619 12.3255 51.9014 12.3581 52.292 12.3906C52.7152 12.4232 53.1221 12.4395 53.5127 12.4395C53.8708 12.4395 54.3265 12.4232 54.8799 12.3906C55.3356 12.3581 55.9215 12.3255 56.6377 12.293C57.3864 12.2279 58.2653 12.1465 59.2744 12.0488C59.2093 12.179 59.0791 12.5859 58.8838 13.2695C58.6885 13.9206 58.4932 14.7344 58.2979 15.7109C58.1025 16.6549 57.9235 17.7129 57.7607 18.8848C57.6305 20.0241 57.5654 21.1634 57.5654 22.3027C57.598 23.4095 57.7445 24.4674 58.0049 25.4766C58.2653 26.4531 58.6885 27.2507 59.2744 27.8691C60.5114 29.1387 61.6019 29.9036 62.5459 30.1641C63.5225 30.4245 64.3688 30.3919 65.085 30.0664C65.8011 29.7409 66.387 29.2526 66.8428 28.6016C67.2985 27.9505 67.624 27.3483 67.8193 26.7949C68.3076 25.2975 68.6006 23.7188 68.6982 22.0586C68.7633 20.6263 68.6494 19.0312 68.3564 17.2734C68.0635 15.5156 67.3636 13.7253 66.2568 11.9023C67.1032 11.9674 67.8356 12.0163 68.4541 12.0488C69.0726 12.0814 69.6097 12.1139 70.0654 12.1465C70.5863 12.179 71.042 12.2116 71.4326 12.2441C71.7907 12.2767 72.2139 12.2767 72.7021 12.2441C73.1253 12.2441 73.6299 12.2279 74.2158 12.1953C74.8343 12.1302 75.5179 12.0651 76.2666 12C76.3968 15.1901 76.5107 18.0384 76.6084 20.5449C76.7061 23.0189 76.7712 25.2161 76.8037 27.1367C76.8688 29.0247 76.9014 30.6686 76.9014 32.0684C76.9014 33.4355 76.9014 34.5911 76.9014 35.5352C76.8688 37.7812 76.7712 39.2624 76.6084 39.9785C76.348 40.9876 75.876 41.9967 75.1924 43.0059C74.5413 44.015 73.7113 44.9102 72.7021 45.6914C71.693 46.5052 70.5212 47.1237 69.1865 47.5469C67.8844 48.0026 66.4521 48.1654 64.8896 48.0352C63.3597 47.9049 62.139 47.6934 61.2275 47.4004C60.3486 47.14 59.6488 46.8307 59.1279 46.4727C58.6396 46.1146 58.2816 45.7402 58.0537 45.3496C57.8584 44.959 57.7119 44.5521 57.6143 44.1289C57.5166 43.7383 57.4189 43.3639 57.3213 43.0059C57.2236 42.6478 57.0283 42.3385 56.7354 42.0781C56.3773 41.7852 56.0029 41.4922 55.6123 41.1992C55.2542 40.9388 54.8636 40.6784 54.4404 40.418C54.0498 40.1576 53.6592 39.946 53.2686 39.7832L63.6689 39.1973C63.376 39.5879 63.1644 39.946 63.0342 40.2715C62.904 40.597 62.8226 40.8737 62.79 41.1016C62.7575 41.3945 62.7738 41.6387 62.8389 41.834C62.9691 42.2246 63.1969 42.6478 63.5225 43.1035C63.8805 43.5918 64.3363 43.9661 64.8896 44.2266C65.443 44.5195 66.0941 44.6172 66.8428 44.5195C67.624 44.4219 68.5029 44.015 69.4795 43.2988C70.2933 42.6803 70.9769 41.6875 71.5303 40.3203C71.986 39.1484 72.3441 37.5046 72.6045 35.3887C72.8649 33.2728 72.8161 30.4896 72.458 27.0391C71.8721 29.0573 71.0745 30.6035 70.0654 31.6777C69.0563 32.752 68.0472 33.5332 67.0381 34.0215C65.8662 34.6074 64.6455 34.9167 63.376 34.9492C61.6833 34.8841 60.2347 34.6725 59.0303 34.3145C57.8258 33.9238 56.833 33.403 56.0518 32.752C55.2705 32.1009 54.652 31.3359 54.1963 30.457C53.7731 29.5456 53.4639 28.5365 53.2686 27.4297C53.0732 26.3229 52.9756 25.2161 52.9756 24.1094C52.9756 22.9701 52.9756 21.9121 52.9756 20.9355C53.0081 19.959 53.0244 19.0801 53.0244 18.2988C53.0244 17.485 52.943 16.834 52.7803 16.3457C52.585 15.8574 52.3245 15.3691 51.999 14.8809C51.7386 14.4577 51.3805 14.002 50.9248 13.5137C50.4365 12.9928 49.8669 12.5046 49.2158 12.0488ZM4.80664 62.6738C5.88086 62.804 6.85742 62.9017 7.73633 62.9668C8.58268 63.0319 9.3151 63.097 9.93359 63.1621C10.6497 63.2272 11.2845 63.276 11.8379 63.3086C12.4238 63.3086 13.1725 63.2923 14.084 63.2598C14.8652 63.2272 15.8581 63.1784 17.0625 63.1133C18.2669 63.0482 19.748 62.9342 21.5059 62.7715C20.6595 63.2598 19.9596 63.748 19.4062 64.2363C18.8854 64.7246 18.4785 65.1641 18.1855 65.5547C17.8275 66.0104 17.5671 66.4661 17.4043 66.9219C17.3066 67.5404 17.3392 68.7448 17.502 70.5352C17.5671 71.2839 17.6647 72.2116 17.7949 73.3184C17.9577 74.3926 18.153 75.6784 18.3809 77.1758C18.6413 78.6406 18.9505 80.3333 19.3086 82.2539C19.6992 84.1745 20.1387 86.3555 20.627 88.7969C21.278 86.9414 21.8151 85.2975 22.2383 83.8652C22.6615 82.4004 23.0195 81.1471 23.3125 80.1055C23.638 78.9336 23.9147 77.8919 24.1426 76.9805C24.3704 76.0365 24.6471 74.8158 24.9727 73.3184C25.2331 72.0488 25.5749 70.4049 25.998 68.3867C26.4212 66.3685 26.9421 63.8783 27.5605 60.916L29.3184 61.1602C29.4811 63.4714 29.6439 65.5059 29.8066 67.2637C30.002 69.0215 30.1647 70.5189 30.2949 71.7559C30.4251 73.1882 30.5553 74.4251 30.6855 75.4668C30.8158 76.4108 31.0111 77.5013 31.2715 78.7383C31.4993 79.7799 31.7923 81.0658 32.1504 82.5957C32.5085 84.0931 32.9805 85.7858 33.5664 87.6738C34.1523 85.3626 34.6732 83.2956 35.1289 81.4727C35.6172 79.6497 36.0241 78.0384 36.3496 76.6387C36.7077 75.2389 37.0007 74.0345 37.2285 73.0254C37.4889 72.0163 37.7005 71.1699 37.8633 70.4863C38.2214 68.8587 38.4329 67.7682 38.498 67.2148C38.4655 66.5964 38.319 65.9941 38.0586 65.4082C37.8307 64.8874 37.4727 64.3177 36.9844 63.6992C36.4961 63.0807 35.7799 62.4785 34.8359 61.8926C36.8216 61.9577 38.4329 62.0065 39.6699 62.0391C40.9395 62.0391 41.9486 62.0391 42.6973 62.0391H44.6504H46.4082C47.0592 62.0391 47.9056 62.0391 48.9473 62.0391C50.0215 62.0065 51.3887 61.9577 53.0488 61.8926C51.6165 62.6413 50.4609 63.3249 49.582 63.9434C48.7031 64.5618 48.0195 65.0827 47.5312 65.5059C46.9453 66.0267 46.5221 66.4661 46.2617 66.8242C46.0013 67.4753 45.5781 68.9401 44.9922 71.2188C44.7318 72.1953 44.4388 73.416 44.1133 74.8809C43.7878 76.3132 43.3971 78.0384 42.9414 80.0566C42.5182 82.0749 42.0299 84.4349 41.4766 87.1367C40.9232 89.806 40.3047 92.8659 39.6211 96.3164L31.1738 95.4375L27.5605 80.252C27.0072 83.0189 26.5677 85.265 26.2422 86.9902C25.9167 88.6829 25.6725 90.0013 25.5098 90.9453C25.3145 92.0846 25.2005 92.9147 25.168 93.4355C25.1354 93.8913 25.1029 94.3307 25.0703 94.7539C25.0378 95.112 24.9889 95.5026 24.9238 95.9258C24.8913 96.349 24.8424 96.7396 24.7773 97.0977H16.1348C15.2884 93.3867 14.5234 90.1152 13.8398 87.2832C13.1888 84.4186 12.6029 81.9121 12.082 79.7637C11.5612 77.6152 11.1055 75.7923 10.7148 74.2949C10.3568 72.7975 10.0312 71.5443 9.73828 70.5352C9.08724 68.1914 8.61523 66.7428 8.32227 66.1895C8.0944 65.929 7.80143 65.6198 7.44336 65.2617C7.15039 64.9688 6.79232 64.6107 6.36914 64.1875C5.91341 63.7318 5.39258 63.2272 4.80664 62.6738ZM59.8848 75.125C60.7311 75.125 61.61 75.2878 62.5215 75.6133C63.4329 75.9062 64.3118 76.2969 65.1582 76.7852C66.0046 77.2409 66.7695 77.7454 67.4531 78.2988C68.1693 78.8197 68.7552 79.3242 69.2109 79.8125C70.0247 80.6914 70.5781 81.8796 70.8711 83.377C71.1966 84.8418 71.2617 86.3555 71.0664 87.918C70.8711 89.4479 70.4154 90.8965 69.6992 92.2637C68.9831 93.6309 67.9902 94.64 66.7207 95.291C65.8092 95.7467 64.9141 96.1048 64.0352 96.3652C63.1562 96.6257 62.3099 96.821 61.4961 96.9512C60.6823 97.0814 59.9173 97.1465 59.2012 97.1465C58.485 97.1465 57.8665 97.1302 57.3457 97.0977C56.3691 97.0326 55.3438 96.6908 54.2695 96.0723C53.2279 95.4538 52.235 94.6888 51.291 93.7773C50.3796 92.8659 49.5983 91.873 48.9473 90.7988C48.2962 89.6921 47.9056 88.6504 47.7754 87.6738C47.5801 86.3392 47.5475 84.9395 47.6777 83.4746C47.8079 82.0098 48.2799 80.6589 49.0938 79.4219C49.9401 78.1849 51.2096 77.1595 52.9023 76.3457C54.6276 75.5319 56.9551 75.125 59.8848 75.125ZM58.2734 94.0703C58.6315 94.1354 59.1198 94.054 59.7383 93.8262C60.3568 93.5658 60.959 93.1589 61.5449 92.6055C62.1634 92.0521 62.7005 91.3522 63.1562 90.5059C63.6445 89.627 63.9375 88.569 64.0352 87.332C64.1328 86.1276 64.1328 85.0208 64.0352 84.0117C63.9701 83.0026 63.8236 82.1237 63.5957 81.375C63.3678 80.5938 63.1074 79.959 62.8145 79.4707C62.5215 78.9824 62.2122 78.6406 61.8867 78.4453C61.3333 78.1523 60.666 77.9245 59.8848 77.7617C59.1035 77.5664 58.4362 77.599 57.8828 77.8594C57.6224 77.9896 57.2969 78.2663 56.9062 78.6895C56.5156 79.1126 56.125 79.6497 55.7344 80.3008C55.3438 80.9193 54.9857 81.6354 54.6602 82.4492C54.3672 83.263 54.1556 84.1094 54.0254 84.9883C53.8952 85.8672 53.8626 86.8112 53.9277 87.8203C54.0254 88.8294 54.237 89.7897 54.5625 90.7012C54.888 91.5801 55.3438 92.3451 55.9297 92.9961C56.5482 93.6146 57.3294 93.9727 58.2734 94.0703Z" fill="black"/>
</svg>
